PathFileType	4	(X/Y/Z)	D:\Documents\my_script\MATLAB\opensim\convert_file_format\tsv_to_trc\CE_8km_M.tsv
DataRate	CameraRate	NumFrames	NumMarkers	Units	OrigDataRate	OrigDataStartFrame	OrigNumFrames
200	200	9	23	mm	200	5498	200
Frame#	Time	Top.Head			L.Acromium			R.Acromium			Sternum			L.ASIS			R.ASIS			V.Sacral			L.Knee.Lat			L.Knee.Med			L.Ankle.Lat			L.Ankle.Med			L.Heel			L.Toe.Lat			L.Toe.Med			L.Toe.Tip			R.Knee.Lat			R.Knee.Med			R.Ankle.Lat			R.Ankle.Med			R.Heel			R.Toe.Lat			R.Toe.Med			R.Toe.Tip		
		X1	Y1	Z1	X2	Y2	Z2	X3	Y3	Z3	X4	Y4	Z4	X5	Y5	Z5	X6	Y6	Z6	X7	Y7	Z7	X8	Y8	Z8	X9	Y9	Z9	X10	Y10	Z10	X11	Y11	Z11	X12	Y12	Z12	X13	Y13	Z13	X14	Y14	Z14	X15	Y15	Z15	X16	Y16	Z16	X17	Y17	Z17	X18	Y18	Z18	X19	Y19	Z19	X20	Y20	Z20	X21	Y21	Z21	X22	Y22	Z22	X23	Y23	Z23
5698	28.485	67.652	1673.263	422.284	264.914	1374.127	381.844	-142.995	1389.433	422.026	73.024	1334.438	500.455	211.139	894.533	409.312	-82.01	884.435	408.524	62.164	944.38	228.333	208.678	433.389	414.995	79.746	404.714	426.166	161.649	111.04	216.338	67.556	114.221	257.707	95.813	56.533	121.244	192.865	45.58	302.19	89.597	43.06	354.317	144.955	48.12	403.958	-122.852	430.289	403.561	14.965	393.274	387.126	-55.576	235.722	81.81	31.086	217.811	124.134	15.215	276.011	-1.902	-88.431	100.554	89.958	15.81	84.082	112.206	-37.086	60.103	146.116
5699	28.49	67.161	1675.496	421.884	264.576	1376.449	384.675	-142.801	1391.084	419.492	73.854	1336.153	499.893	211.539	896.095	408.961	-80.849	886.746	408.163	62.379	946.817	228.154	208.121	433.273	406.236	79.065	404.79	417.075	161.995	112.305	205.798	67.543	115.154	247.211	95.079	58.369	109.89	194.081	45.958	291.357	89.847	43.04	343.084	145.118	47.932	392.762	-121.172	432.89	409.662	17.197	397.86	400.274	-54.757	230.602	92.551	31.631	214.854	134.672	15.743	268.216	6.497	-88.213	96.698	105.223	15.872	81.102	128.838	-36.82	58.369	162.98
5700	28.495	66.547	1677.942	421.52	264.135	1379.025	387.509	-142.176	1392.782	416.937	75.111	1338.039	499.18	211.855	897.865	408.718	-79.672	889.33	407.858	62.54	949.443	228.061	207.616	433.507	396.868	79.132	404.925	404.784	162.035	113.606	196.284	67.166	115.948	237.618	96.289	61.081	99.362	195.675	46.418	280.624	90.084	43.084	331.828	145.259	47.786	381.565	-119.326	435.741	416.16	19.568	402.928	414.461	-53.847	225.32	103.507	32.177	211.601	145.215	16.38	259.958	15.305	-88.038	92.811	120.797	15.89	78.081	145.872	-36.704	56.796	180.156
5701	28.5	65.81	1680.573	421.169	263.674	1381.766	390.356	-142.443	1395.967	413.679	73.559	1340.72	499.235	212.009	899.781	408.614	-78.537	892.16	407.614	62.701	952.274	228.053	207.311	434.166	386.891	79.413	404.823	392.281	162.126	115.082	186.959	66.805	116.812	228.133	96.707	63.873	88.585	197.302	46.899	269.919	90.322	43.132	320.574	145.392	47.646	370.36	-117.153	438.633	422.089	22.358	408.458	426.849	-52.626	219.803	114.475	32.685	208.112	156.041	17.126	251.291	24.563	-87.908	88.888	136.645	15.839	75.056	163.274	-36.701	55.295	197.622
5702	28.505	64.984	1683.37	420.884	263.117	1384.728	393.157	-142.642	1399.266	410.539	71.662	1343.668	499.294	212.024	901.833	408.646	-77.49	895.2	407.41	62.88	955.291	228.134	206.874	435.377	377.096	79.58	405.118	380.051	162.222	116.719	177.709	66.445	117.776	218.708	97.161	66.963	77.893	197.909	47.135	258.951	90.567	43.216	309.326	145.524	47.513	359.159	-114.921	441.682	427.738	24.807	413.762	440.166	-51.353	214.028	125.25	33.185	204.13	166.553	17.952	242.275	34.299	-87.834	84.971	152.777	15.942	71.845	180.222	-36.818	53.885	215.349
5703	28.51	64.054	1686.322	420.646	262.47	1387.862	395.873	-142.781	1402.631	407.552	69.752	1346.754	499.365	211.856	904.022	408.824	-76.591	898.406	407.235	63.097	958.498	228.309	206.475	437.131	367.643	79.851	405.713	367.933	162.483	118.62	168.693	66.194	118.866	209.381	97.679	70.402	67.344	198.467	47.397	248.022	90.855	43.309	298.095	145.661	47.394	347.961	-112.774	444.924	433.065	27.057	418.982	451.195	-50.104	208.604	135.601	33.491	199.859	177.421	18.814	232.949	44.543	-87.84	81.074	169.18	16.063	68.44	196.806	-37.101	52.581	233.221
5704	28.515	63.013	1689.377	420.433	261.753	1391.164	398.533	-142.84	1405.972	404.683	67.814	1349.972	499.453	211.534	906.3	409.159	-76.481	901.896	406.962	63.328	961.853	228.573	206.249	439.356	358.552	80.158	406.717	355.838	163.102	120.769	158.943	66.331	120.365	199.367	98.216	74.148	56.917	199.022	47.68	237.133	91.095	43.46	286.933	145.794	47.3	336.772	-112.629	449.222	437.238	27.052	423.134	454.315	-49.036	203.021	146.301	33.489	195.377	188.921	17.973	223.062	54.711	-87.933	77.245	185.833	16.086	65.09	213.701	-37.544	51.401	251.233
5705	28.52	61.912	1692.511	420.248	260.958	1394.6	401.121	-142.856	1409.343	401.998	65.944	1353.216	499.574	211.04	908.633	409.637	-76.554	905.515	406.704	63.575	965.319	228.928	206.023	442.044	350.011	79.842	408.293	346.683	163.796	123.08	149.328	66.519	121.944	189.411	98.862	78.238	46.729	199.348	47.993	226.262	91.351	43.618	275.802	145.921	47.216	325.612	-112.481	453.502	440.483	26.968	427.165	456.003	-48.023	197.241	157.496	33.16	190.882	201.175	18.906	213.798	65.096	-88.107	73.505	202.726	15.933	61.835	230.845	-38.068	50.285	269.382
5706	28.525	60.73	1695.708	420.106	260.104	1398.144	403.646	-142.862	1412.73	399.447	64.071	1356.56	499.704	210.384	910.984	410.225	-76.761	909.144	406.465	63.913	968.847	229.428	205.863	445.08	342.051	79.66	410.53	337.375	164.543	125.507	139.867	66.788	123.677	179.667	100.702	82.929	37.223	199.548	48.307	215.479	91.721	43.892	264.756	146.066	47.133	314.469	-112.46	457.846	443.777	26.594	431.001	459.361	-47.386	191.356	169.298	32.487	186.406	213.977	19.628	204.153	76.408	-88.388	69.894	219.874	15.635	58.72	248.247	-38.723	49.332	287.68
